  0
SECTION
  2
HEADER
  9
$ACADVER
  1
AC1009
  0
ENDSEC
  0
SECTION
  2
TABLES
  0
TABLE
  2
LAYER
  70
1
  0
LAYER
  2
Layer_2
  70
0
  62
1
  6
CONTINUOUS
  0
ENDTAB
  0
ENDSEC
  0
SECTION
  2
ENTITIES
  0
POLYLINE
  5
90
  8
Layer_2
  62
1
  70
1
  66
1
  10
0
  20
0
  30
0
  0
VERTEX
  5
90
  8
Layer_2
  10
132.65381
  20
112.88428
  0
VERTEX
  5
91
  8
Layer_2
  10
135.71582
  20
112.88428
  42
0.072096994
  0
VERTEX
  5
92
  8
Layer_2
  10
137.85742
  20
113.14795
  42
0.13509747
  0
VERTEX
  5
93
  8
Layer_2
  10
139.21729
  20
113.93896
  42
0.21893178
  0
VERTEX
  5
94
  8
Layer_2
  10
140.16357
  20
116.95068
  42
0.17811315
  0
VERTEX
  5
95
  8
Layer_2
  10
139.1499
  20
119.0708
  42
0.14444003
  0
VERTEX
  5
96
  8
Layer_2
  10
137.39307
  20
119.85498
  42
0.041752765
  0
VERTEX
  5
97
  8
Layer_2
  10
135.57715
  20
119.96875
  0
VERTEX
  5
98
  8
Layer_2
  10
131.07422
  20
119.96875
  0
VERTEX
  5
99
  8
Layer_2
  10
131.07422
  20
108.03125
  0
VERTEX
  5
9a
  8
Layer_2
  10
132.65381
  20
108.03125
  0
SEQEND
  0
POLYLINE
  5
9c
  8
Layer_2
  62
1
  70
1
  66
1
  10
0
  20
0
  30
0
  0
VERTEX
  5
9c
  8
Layer_2
  10
142.63721
  20
111.64648
  0
VERTEX
  5
9d
  8
Layer_2
  10
147.62891
  20
111.64648
  0
VERTEX
  5
9e
  8
Layer_2
  10
149.02148
  20
108.03125
  0
VERTEX
  5
9f
  8
Layer_2
  10
150.8208
  20
108.03125
  0
VERTEX
  5
a0
  8
Layer_2
  10
145.93506
  20
119.96875
  0
VERTEX
  5
a1
  8
Layer_2
  10
144.2334
  20
119.96875
  0
VERTEX
  5
a2
  8
Layer_2
  10
139.64893
  20
108.03125
  0
VERTEX
  5
a3
  8
Layer_2
  10
141.32617
  20
108.03125
  0
SEQEND
  0
POLYLINE
  5
a5
  8
Layer_2
  62
1
  70
1
  66
1
  10
0
  20
0
  30
0
  0
VERTEX
  5
a5
  8
Layer_2
  10
155.4624
  20
118.56006
  0
VERTEX
  5
a6
  8
Layer_2
  10
159.41211
  20
118.56006
  0
VERTEX
  5
a7
  8
Layer_2
  10
159.41211
  20
119.96875
  0
VERTEX
  5
a8
  8
Layer_2
  10
149.94971
  20
119.96875
  0
VERTEX
  5
a9
  8
Layer_2
  10
149.94971
  20
118.56006
  0
VERTEX
  5
aa
  8
Layer_2
  10
153.88281
  20
118.56006
  0
VERTEX
  5
ab
  8
Layer_2
  10
153.88281
  20
108.03125
  0
VERTEX
  5
ac
  8
Layer_2
  10
155.4624
  20
108.03125
  0
SEQEND
  0
POLYLINE
  5
ae
  8
Layer_2
  62
1
  70
1
  66
1
  10
0
  20
0
  30
0
  0
VERTEX
  5
ae
  8
Layer_2
  10
165.64941
  20
118.56006
  0
VERTEX
  5
af
  8
Layer_2
  10
169.59912
  20
118.56006
  0
VERTEX
  5
b0
  8
Layer_2
  10
169.59912
  20
119.96875
  0
VERTEX
  5
b1
  8
Layer_2
  10
160.13672
  20
119.96875
  0
VERTEX
  5
b2
  8
Layer_2
  10
160.13672
  20
118.56006
  0
VERTEX
  5
b3
  8
Layer_2
  10
164.06982
  20
118.56006
  0
VERTEX
  5
b4
  8
Layer_2
  10
164.06982
  20
108.03125
  0
VERTEX
  5
b5
  8
Layer_2
  10
165.64941
  20
108.03125
  0
SEQEND
  0
POLYLINE
  5
b7
  8
Layer_2
  62
1
  70
1
  66
1
  10
0
  20
0
  30
0
  0
VERTEX
  5
b7
  8
Layer_2
  10
176.16211
  20
113.08789
  0
VERTEX
  5
b8
  8
Layer_2
  10
180.92578
  20
119.96875
  0
VERTEX
  5
b9
  8
Layer_2
  10
179.08545
  20
119.96875
  42
0.0047631656
  0
VERTEX
  5
ba
  8
Layer_2
  10
176.4043
  20
115.8877
  42
0.011661324
  0
VERTEX
  5
bb
  8
Layer_2
  10
175.47021
  20
114.3501
  0
VERTEX
  5
bc
  8
Layer_2
  10
174.88574
  20
115.35986
  0
VERTEX
  5
bd
  8
Layer_2
  10
174.25684
  20
116.36963
  0
VERTEX
  5
be
  8
Layer_2
  10
171.90332
  20
119.96875
  0
VERTEX
  5
bf
  8
Layer_2
  10
169.98145
  20
119.96875
  0
VERTEX
  5
c0
  8
Layer_2
  10
174.58252
  20
113.08789
  0
VERTEX
  5
c1
  8
Layer_2
  10
174.58252
  20
108.03125
  0
VERTEX
  5
c2
  8
Layer_2
  10
176.16211
  20
108.03125
  0
SEQEND
  0
POLYLINE
  5
c4
  8
Layer_2
  62
1
  70
1
  66
1
  10
0
  20
0
  30
0
  0
VERTEX
  5
c4
  8
Layer_2
  10
143.09326
  20
112.93311
  0
VERTEX
  5
c5
  8
Layer_2
  10
144.4043
  20
116.43457
  42
0.039149562
  0
VERTEX
  5
c6
  8
Layer_2
  10
145.04736
  20
118.71484
  0
VERTEX
  5
c7
  8
Layer_2
  10
145.12158
  20
118.46387
  42
0.014698926
  0
VERTEX
  5
c8
  8
Layer_2
  10
145.75635
  20
116.60742
  0
VERTEX
  5
c9
  8
Layer_2
  10
147.14014
  20
112.93311
  0
SEQEND
  0
POLYLINE
  5
cb
  8
Layer_2
  62
1
  70
1
  66
1
  10
0
  20
0
  30
0
  0
VERTEX
  5
cb
  8
Layer_2
  10
132.65381
  20
114.29297
  0
VERTEX
  5
cc
  8
Layer_2
  10
132.65381
  20
118.56006
  42
-0.0037768844
  0
VERTEX
  5
cd
  8
Layer_2
  10
135.96582
  20
118.55811
  42
-0.055404185
  0
VERTEX
  5
ce
  8
Layer_2
  10
137.18164
  20
118.4541
  42
-0.30401234
  0
VERTEX
  5
cf
  8
Layer_2
  10
138.53369
  20
116.82813
  42
-0.18823547
  0
VERTEX
  5
d0
  8
Layer_2
  10
138.1958
  20
115.17725
  42
-0.18754948
  0
VERTEX
  5
d1
  8
Layer_2
  10
137.04932
  20
114.43555
  42
-0.063334341
  0
VERTEX
  5
d2
  8
Layer_2
  10
135.74023
  20
114.29297
  0
SEQEND
  0
ENDSEC
  0
EOF
